<?xml version="1.0" encoding="UTF-8"?>
<svg version="1.1" xmlns="http://www.w3.org/2000/svg" width="500" height="500">
<path d="M0 0 C165 0 330 0 500 0 C500 165 500 330 500 500 C335 500 170 500 0 500 C0 335 0 170 0 0 Z " fill="#FEFEFE" transform="translate(0,0)"/>
<path d="M0 0 C3.92005939 1.30668646 4.28032042 2.78667695 6.1875 6.375 C6.71730469 7.35210937 7.24710938 8.32921875 7.79296875 9.3359375 C9 12 9 12 9 15 C7.02 15 5.04 15 3 15 C3 42.72 3 70.44 3 99 C-3.93 99 -10.86 99 -18 99 C-18 107.91 -18 116.82 -18 126 C-25.59 126 -33.18 126 -41 126 C-41 95.64 -41 65.28 -41 34 C-48.59 34 -56.18 34 -64 34 C-64 58.09 -64 82.18 -64 107 C-73.24 107 -82.48 107 -92 107 C-92 98.09 -92 89.18 -92 80 C-101.57 80 -111.14 80 -121 80 C-121 103.43 -121 126.86 -121 151 C-137.37167396 151 -153.70168111 150.903436 -170.0625 150.5 C-172.11653016 150.45155513 -174.17056664 150.4033774 -176.22460938 150.35546875 C-181.14981726 150.24003201 -186.0749276 150.12107403 -191 150 C-191 148.35 -191 146.7 -191 145 C-169.55 145 -148.1 145 -126 145 C-126 121.9 -126 98.8 -126 75 C-113.13 75 -100.26 75 -87 75 C-87 83.91 -87 92.82 -87 102 C-81.06 102 -75.12 102 -69 102 C-69 77.91 -69 53.82 -69 29 C-58.11 29 -47.22 29 -36 29 C-36 59.36 -36 89.72 -36 121 C-31.71 121 -27.42 121 -23 121 C-23 112.09 -23 103.18 -23 94 C-16.07 94 -9.14 94 -2 94 C-2 67.93 -2 41.86 -2 15 C-3.65 15 -5.3 15 -7 15 C-6.31238981 11.34435091 -4.74550455 8.48132728 -2.9375 5.25 C-2.11572266 3.77273437 -2.11572266 3.77273437 -1.27734375 2.265625 C-0.85582031 1.51796875 -0.43429687 0.7703125 0 0 Z " fill="#2582BF" transform="translate(340,124)"/>
<path d="M0 0 C0.33 0 0.66 0 1 0 C1 23.76 1 47.52 1 72 C-8.24 72 -17.48 72 -27 72 C-27 63.09 -27 54.18 -27 45 C-36.57 45 -46.14 45 -56 45 C-56 68.43 -56 91.86 -56 116 C-72.37167396 116 -88.70168111 115.903436 -105.0625 115.5 C-107.11653016 115.45155513 -109.17056664 115.4033774 -111.22460938 115.35546875 C-116.14981726 115.24003201 -121.0749276 115.12107403 -126 115 C-126 113.35 -126 111.7 -126 110 C-104.55 110 -83.1 110 -61 110 C-61 86.9 -61 63.8 -61 40 C-50.44 40 -39.88 40 -29 40 C-29.33 40.99 -29.66 41.98 -30 43 C-28.02 43.495 -28.02 43.495 -26 44 C-26 52.91 -26 61.82 -26 71 C-17.42 71 -8.84 71 0 71 C0 47.57 0 24.14 0 0 Z " fill="#47A4D7" transform="translate(275,159)"/>
<path d="M0 0 C3.22768719 2.3752015 5.4684852 4.40780593 7.70703125 7.765625 C8.33706105 13.66752182 8.084089 19.26867896 5.70703125 24.765625 C6.69703125 25.095625 7.68703125 25.425625 8.70703125 25.765625 C8.70703125 26.095625 8.70703125 26.425625 8.70703125 26.765625 C2.08203125 26.890625 2.08203125 26.890625 -1.29296875 25.765625 C-1.29296875 26.425625 -1.29296875 27.085625 -1.29296875 27.765625 C-12.93054074 28.62554411 -12.93054074 28.62554411 -17.35546875 25.640625 C-20.83681119 22.60930975 -22.86309393 19.44696919 -23.60546875 14.81640625 C-23.91795872 9.68961776 -22.64962714 6.77496696 -19.29296875 2.765625 C-14.25365193 -1.80125587 -6.12029688 -3.29474245 0 0 Z " fill="#2667AE" transform="translate(118.29296875,309.234375)"/>
<path d="M0 0 C3.92005939 1.30668646 4.28032042 2.78667695 6.1875 6.375 C6.71730469 7.35210937 7.24710937 8.32921875 7.79296875 9.3359375 C9 12 9 12 9 15 C7.02 15 5.04 15 3 15 C3 42.39 3 69.78 3 98 C1.35 98 -0.3 98 -2 98 C-2.33 97.67 -2.66 97.34 -3 97 C-5.70348448 97.09099676 -8.3671735 97.23748601 -11.0625 97.4375 C-13.681875 97.623125 -16.30125 97.80875 -19 98 C-19 106.91 -19 115.82 -19 125 C-32.5 125 -32.5 125 -37 123 C-37 122.67 -37 122.34 -37 122 C-31.72 122 -26.44 122 -21 122 C-21.33 113.09 -21.66 104.18 -22 95 C-15.4 95 -8.8 95 -2 95 C-2 68.6 -2 42.2 -2 15 C-3.65 15 -5.3 15 -7 15 C-6.31238981 11.34435091 -4.74550455 8.48132728 -2.9375 5.25 C-2.11572266 3.77273437 -2.11572266 3.77273437 -1.27734375 2.265625 C-0.85582031 1.51796875 -0.43429687 0.7703125 0 0 Z " fill="#1764A7" transform="translate(340,124)"/>
<path d="M0 0 C-0.33 1.65 -0.66 3.3 -1 5 C-7.6 5 -14.2 5 -21 5 C-21 6.32 -21 7.64 -21 9 C-20.41508789 8.97905273 -19.83017578 8.95810547 -19.22753906 8.93652344 C-16.56853535 8.85319885 -13.90980645 8.80129103 -11.25 8.75 C-10.32960938 8.71648437 -9.40921875 8.68296875 -8.4609375 8.6484375 C-1.65144742 8.54974924 -1.65144742 8.54974924 1.60546875 10.80078125 C3.68725559 14.08382323 3.6006592 16.19582507 3 20 C0.54905772 22.98087575 -1.79527998 24.86351998 -5 27 C-7.63494329 27.24956511 -10.11515604 27.37978627 -12.75 27.375 C-13.46994141 27.37628906 -14.18988281 27.37757813 -14.93164062 27.37890625 C-20.45939171 27.26825063 -23.72294852 26.42164118 -28 23 C-27.67 21.68 -27.34 20.36 -27 19 C-23 19 -23 19 -20.70703125 19.49609375 C-17.32784774 20.12511925 -14.12235806 20.09460148 -10.6875 20.0625 C-9.43324219 20.05347656 -8.17898438 20.04445313 -6.88671875 20.03515625 C-5.93410156 20.02355469 -4.98148437 20.01195312 -4 20 C-4 18.35 -4 16.7 -4 15 C-4.83192871 15.0314209 -4.83192871 15.0314209 -5.68066406 15.06347656 C-8.20359023 15.14683548 -10.72622649 15.19871868 -13.25 15.25 C-14.55904297 15.30027344 -14.55904297 15.30027344 -15.89453125 15.3515625 C-22.34387829 15.45002581 -22.34387829 15.45002581 -25.57421875 13.234375 C-27.48867312 10.23418898 -27.62679533 8.38106359 -27.46484375 4.90234375 C-27 3 -27 3 -24.625 0.5625 C-17.08135577 -3.92776442 -8.1387166 -2.50422049 0 0 Z " fill="#1C5EA3" transform="translate(408,310)"/>
<path d="M0 0 C0.9075 0.33 1.815 0.66 2.75 1 C2.75 2.65 2.75 4.3 2.75 6 C-3.52 6 -9.79 6 -16.25 6 C-16.58 7.32 -16.91 8.64 -17.25 10 C-16.66508789 9.97381592 -16.08017578 9.94763184 -15.47753906 9.9206543 C-12.81863434 9.81650244 -10.16015856 9.75162228 -7.5 9.6875 C-6.11941406 9.6246582 -6.11941406 9.6246582 -4.7109375 9.56054688 C2.10581504 9.43705498 2.10581504 9.43705498 5.3828125 12.30078125 C7.29733594 16.08059752 7.03934406 17.98870738 5.75 22 C2.60588191 25.55422045 -0.67606712 27.89994559 -5.4453125 28.203125 C-12.66046197 28.2891904 -18.64569979 28.23475929 -25.25 25 C-24.74396008 22.83125748 -24.25016187 21.00032373 -23.25 19 C-19.25 20 -19.25 20 -17.53125 20.53125 C-14.49120983 21.15591579 -11.60049457 21.09350495 -8.5 21.0625 C-7.32953125 21.05347656 -6.1590625 21.04445313 -4.953125 21.03515625 C-4.06109375 21.02355469 -3.1690625 21.01195312 -2.25 21 C-1.92 19.68 -1.59 18.36 -1.25 17 C-2.08978394 16.98598145 -2.08978394 16.98598145 -2.9465332 16.97167969 C-5.48608146 16.91795493 -8.02379111 16.83431813 -10.5625 16.75 C-11.88411133 16.72873047 -11.88411133 16.72873047 -13.23242188 16.70703125 C-19.71852516 16.46041135 -19.71852516 16.46041135 -22.32421875 14.203125 C-23.79155534 10.71123539 -24.08794569 7.70981409 -23.25 4 C-17.02708305 -2.38667792 -8.30067457 -2.40327539 0 0 Z " fill="#1F65A7" transform="translate(84.25,309)"/>
<path d="M0 0 C1.670625 0.061875 1.670625 0.061875 3.375 0.125 C15.375 23.86286408 15.375 23.86286408 15.375 28.125 C13.395 28.125 11.415 28.125 9.375 28.125 C8.88 25.65 8.88 25.65 8.375 23.125 C-0.04 23.62 -0.04 23.62 -8.625 24.125 C-8.955 25.115 -9.285 26.105 -9.625 27.125 C-11.605 27.125 -13.585 27.125 -15.625 27.125 C-15.02399772 23.60071013 -14.09314616 20.59002255 -12.62890625 17.33203125 C-12.23509766 16.45482422 -11.84128906 15.57761719 -11.43554688 14.67382812 C-11.02369141 13.77083984 -10.61183594 12.86785156 -10.1875 11.9375 C-9.77951172 11.02291016 -9.37152344 10.10832031 -8.95117188 9.16601562 C-4.88061732 0.16829715 -4.88061732 0.16829715 0 0 Z " fill="#1B5A9F" transform="translate(178.625,308.875)"/>
<path d="M0 0 C3.81248426 -0.02887236 7.6249407 -0.04675492 11.4375 -0.0625 C12.52611328 -0.07087891 13.61472656 -0.07925781 14.73632812 -0.08789062 C15.77080078 -0.09111328 16.80527344 -0.09433594 17.87109375 -0.09765625 C18.82943115 -0.10289307 19.78776855 -0.10812988 20.77514648 -0.11352539 C23 0 23 0 24 1 C24 2.65 24 4.3 24 6 C18.06 6 12.12 6 6 6 C6 7.65 6 9.3 6 11 C11.28 11 16.56 11 22 11 C22 12.65 22 14.3 22 16 C16.72 16 11.44 16 6 16 C6 18.31 6 20.62 6 23 C11.94 23 17.88 23 24 23 C24 24.98 24 26.96 24 29 C20.18751574 29.02887236 16.3750593 29.04675492 12.5625 29.0625 C11.47388672 29.07087891 10.38527344 29.07925781 9.26367188 29.08789062 C8.22919922 29.09111328 7.19472656 29.09433594 6.12890625 29.09765625 C5.17056885 29.10289307 4.21223145 29.10812988 3.22485352 29.11352539 C1 29 1 29 0 28 C-0.08767112 25.92737924 -0.10695873 23.85179706 -0.09765625 21.77734375 C-0.09443359 20.51728516 -0.09121094 19.25722656 -0.08789062 17.95898438 C-0.07953403 16.61848891 -0.07106907 15.27799412 -0.0625 13.9375 C-0.0574866 12.59310058 -0.05292342 11.2486994 -0.04882812 9.90429688 C-0.03699488 6.60282059 -0.02050971 3.30143197 0 0 Z " fill="#2E6DAD" transform="translate(231,308)"/>
<path d="M0 0 C7.92 0 15.84 0 24 0 C24 1.65 24 3.3 24 5 C23 6 23 6 19.18359375 6.09765625 C17.60153318 6.09098089 16.01948841 6.07901875 14.4375 6.0625 C13.63119141 6.05798828 12.82488281 6.05347656 11.99414062 6.04882812 C9.99606244 6.03700518 7.99802217 6.01906914 6 6 C6 7.65 6 9.3 6 11 C10.95 11 15.9 11 21 11 C21.33 12.65 21.66 14.3 22 16 C16.72 16 11.44 16 6 16 C6 18.64 6 21.28 6 24 C11.94 24 17.88 24 24 24 C24 25.65 24 27.3 24 29 C16.08 29 8.16 29 0 29 C0 19.43 0 9.86 0 0 Z " fill="#0C56A5" transform="translate(351,308)"/>
<path d="M0 0 C1.98 0 3.96 0 6 0 C6 9.57 6 19.14 6 29 C4.02 29 2.04 29 0 29 C0 24.38 0 19.76 0 15 C-2.475 14.505 -2.475 14.505 -5 14 C-9.08379185 12.15025237 -13.01444161 10.05847521 -17 8 C-17 14.6 -17 21.2 -17 28 C-18.98 28 -20.96 28 -23 28 C-23 19.09 -23 10.18 -23 1 C-14.00956938 1 -14.00956938 1 -9.25 3.875 C-8.34765625 4.40867187 -7.4453125 4.94234375 -6.515625 5.4921875 C-5.68546875 5.98976563 -4.8553125 6.48734375 -4 7 C-2.68 7.66 -1.36 8.32 0 9 C0 6.03 0 3.06 0 0 Z " fill="#2763A2" transform="translate(308,308)"/>
<path d="M0 0 C1.98 0 3.96 0 6 0 C6.01981934 0.55985596 6.03963867 1.11971191 6.06005859 1.6965332 C6.15537783 4.23565854 6.26502753 6.77396888 6.375 9.3125 C6.4059375 10.19357422 6.436875 11.07464844 6.46875 11.98242188 C6.50742188 12.82998047 6.54609375 13.67753906 6.5859375 14.55078125 C6.6173584 15.33106689 6.6487793 16.11135254 6.68115234 16.9152832 C6.89587889 19.30155768 6.89587889 19.30155768 9 22 C11.13253645 22.47687303 11.13253645 22.47687303 13.5 22.375 C14.2940625 22.38273437 15.088125 22.39046875 15.90625 22.3984375 C16.94265625 22.20121094 16.94265625 22.20121094 18 22 C20.0140956 18.9788566 20.26836596 18.19339983 20.4140625 14.76953125 C20.45273438 13.96708984 20.49140625 13.16464844 20.53125 12.33789062 C20.57765625 11.08782227 20.57765625 11.08782227 20.625 9.8125 C20.66367188 8.96751953 20.70234375 8.12253906 20.7421875 7.25195312 C20.83636279 5.16832476 20.91926675 3.08419247 21 1 C22.98 1 24.96 1 27 1 C27.14622024 4.20784721 27.23436651 7.41482961 27.3125 10.625 C27.35439453 11.52863281 27.39628906 12.43226563 27.43945312 13.36328125 C27.51972366 17.76210643 27.53958525 20.98380009 24.73046875 24.5234375 C20.07324547 28.74758565 16.75916519 29.55811881 10.546875 29.45703125 C6.33295256 28.70085192 3.62283924 26.2965961 1 23 C0.03911617 20.11734851 -0.11670941 18.32337729 -0.09765625 15.33203125 C-0.09443359 14.43935547 -0.09121094 13.54667969 -0.08789062 12.62695312 C-0.07951172 11.69818359 -0.07113281 10.76941406 -0.0625 9.8125 C-0.05798828 8.87212891 -0.05347656 7.93175781 -0.04882812 6.96289062 C-0.03704626 4.64186288 -0.02059558 2.32096356 0 0 Z " fill="#386DAB" transform="translate(132,308)"/>
<path d="M0 0 C5.28 0 10.56 0 16 0 C15.67 1.32 15.34 2.64 15 4 C11.7 4 8.4 4 5 4 C5 7.3 5 10.6 5 14 C9.95 13.67 14.9 13.34 20 13 C20 10.03 20 7.06 20 4 C21.9375 5.0625 21.9375 5.0625 24 7 C24.9375 10.4375 24.9375 10.4375 25 14 C23.5 16.1875 23.5 16.1875 22 18 C22.27882869 21.06711564 23.24247137 22.36370706 25 25 C25 25.99 25 26.98 25 28 C22.69 28 20.38 28 18 28 C17.54625 26.865625 17.0925 25.73125 16.625 24.5625 C15.62847481 22.56347517 15.62847481 22.56347517 14 21 C10.66059991 20.07878618 7.45259059 19.95387761 4 20 C4 22.31 4 24.62 4 27 C2.68 27 1.36 27 0 27 C0 18.09 0 9.18 0 0 Z " fill="#175DA4" transform="translate(199,309)"/>
<path d="M0 0 C10.89 0 21.78 0 33 0 C33 30.36 33 60.72 33 92 C37.29 92 41.58 92 46 92 C46 83.09 46 74.18 46 65 C52.93 65 59.86 65 67 65 C67 65.33 67 65.66 67 66 C60.4 66 53.8 66 47 66 C47.495 70.455 47.495 70.455 48 75 C48.06811142 76.60435357 48.10955073 78.21065158 48.09765625 79.81640625 C48.09443359 80.59951172 48.09121094 81.38261719 48.08789062 82.18945312 C48.07951172 82.97255859 48.07113281 83.75566406 48.0625 84.5625 C48.05798828 85.38041016 48.05347656 86.19832031 48.04882812 87.04101562 C48.03721198 89.02737647 48.01928448 91.0136988 48 93 C43.05 93.33 38.1 93.66 33 94 C38.61 94.66 44.22 95.32 50 96 C49.91621094 94.06253906 49.83242188 92.12507813 49.74609375 90.12890625 C49.64295855 87.60678188 49.54010865 85.08464584 49.4375 82.5625 C49.35338867 80.6434082 49.35338867 80.6434082 49.26757812 78.68554688 C49.19506836 76.86313477 49.19506836 76.86313477 49.12109375 75.00390625 C49.0739624 73.87799072 49.02683105 72.7520752 48.97827148 71.59204102 C49 69 49 69 50 68 C52.57046759 67.7064864 55.1085127 67.48382334 57.6875 67.3125 C58.39583984 67.25255859 59.10417969 67.19261719 59.83398438 67.13085938 C64.36401374 66.82551114 67.71863711 67.24025872 72 69 C72 69.33 72 69.66 72 70 C65.07 70 58.14 70 51 70 C51 78.91 51 87.82 51 97 C43.41 97 35.82 97 28 97 C28.66 95.35 29.32 93.7 30 92 C30.35104082 89.56844964 30.35104082 89.56844964 30.39428711 87.02392578 C30.43010391 86.04334198 30.46592072 85.06275818 30.50282288 84.05245972 C30.53153976 82.98585114 30.56025665 81.91924255 30.58984375 80.8203125 C30.62665756 79.68723663 30.66347137 78.55416077 30.70140076 77.38674927 C31.14137177 62.95601552 31.3370022 48.51890341 31.53222656 34.08319092 C31.58362551 30.33407308 31.63864205 26.58500813 31.69335938 22.8359375 C31.79933901 15.55733594 31.89956008 8.27868838 32 1 C21.44 1 10.88 1 0 1 C0 0.67 0 0.34 0 0 Z " fill="#69A0C6" transform="translate(271,153)"/>
<path d="M0 0 C2.8125 -0.3125 2.8125 -0.3125 6 0 C7.6875 2.0625 7.6875 2.0625 9 5 C9.53625 6.134375 10.0725 7.26875 10.625 8.4375 C11.87955856 11.68794717 12.57987777 14.55499767 13 18 C13.66 18 14.32 18 15 18 C15.41378906 16.71222656 15.41378906 16.71222656 15.8359375 15.3984375 C16.97457764 12.07421963 18.25849731 8.86145373 19.625 5.625 C20.07101562 4.56539063 20.51703125 3.50578125 20.9765625 2.4140625 C21.31429688 1.61742187 21.65203125 0.82078125 22 0 C24.31 0 26.62 0 29 0 C25.8513352 9.71916624 21.70870059 18.94326525 17 28 C15.02 28 13.04 28 11 28 C10.70867187 27.28457031 10.41734375 26.56914062 10.1171875 25.83203125 C7.31690054 19.02504441 4.32851808 12.34767612 1.13671875 5.71484375 C0 3 0 3 0 0 Z " fill="#225EA7" transform="translate(318,309)"/>
<path d="M0 0 C0.33 0 0.66 0 1 0 C1.495 36.63 1.495 36.63 2 74 C-5.92 74 -13.84 74 -22 74 C-22 65.09 -22 56.18 -22 47 C-24.31 47 -26.62 47 -29 47 C-27.4375 45 -27.4375 45 -25 43 C-22.69 43 -20.38 43 -18 43 C-18 51.91 -18 60.82 -18 70 C-12.06 70 -6.12 70 0 70 C0 46.9 0 23.8 0 0 Z " fill="#308CC3" transform="translate(271,156)"/>
<path d="M0 0 C8.91 0 17.82 0 27 0 C27 1.65 27 3.3 27 5 C23.7 5 20.4 5 17 5 C17.01160156 6.57652344 17.02320313 8.15304687 17.03515625 9.77734375 C17.04453243 11.83072799 17.05363282 13.8841135 17.0625 15.9375 C17.07087891 16.97841797 17.07925781 18.01933594 17.08789062 19.09179688 C17.09272461 20.57583008 17.09272461 20.57583008 17.09765625 22.08984375 C17.10551147 23.46450806 17.10551147 23.46450806 17.11352539 24.86694336 C17 27 17 27 16 28 C14.35 28 12.7 28 11 28 C11 20.41 11 12.82 11 5 C7.37 5 3.74 5 0 5 C0 3.35 0 1.7 0 0 Z " fill="#125AA8" transform="translate(415,309)"/>
<path d="M0 0 C0.33 0 0.66 0 1 0 C1 23.43 1 46.86 1 71 C-15.37167396 71 -31.70168111 70.903436 -48.0625 70.5 C-50.11653016 70.45155513 -52.17056664 70.4033774 -54.22460938 70.35546875 C-59.14981726 70.24003201 -64.0749276 70.12107403 -69 70 C-69 68.35 -69 66.7 -69 65 C-47.88 65 -26.76 65 -5 65 C-5 65.33 -5 65.66 -5 66 C-5.88558594 66.02505615 -6.77117187 66.0501123 -7.68359375 66.07592773 C-11.05345417 66.17257891 -14.42322559 66.27168602 -17.79296875 66.37231445 C-19.23564953 66.4149246 -20.6783574 66.45662955 -22.12109375 66.49731445 C-24.22664503 66.55686391 -26.33206844 66.61996519 -28.4375 66.68359375 C-30.32275391 66.73858032 -30.32275391 66.73858032 -32.24609375 66.79467773 C-39.16926536 67.09369105 -46.08386908 67.56774182 -53 68 C-26.765 68.99 -26.765 68.99 0 70 C0 46.9 0 23.8 0 0 Z " fill="#69BAE1" transform="translate(218,204)"/>
<path d="M0 0 C2.990625 -0.103125 5.98125 -0.20625 9.0625 -0.3125 C10.45480835 -0.38078003 10.45480835 -0.38078003 11.87524414 -0.45043945 C18.20150369 -0.55521242 21.25714037 0.79882155 26 5 C27.4783226 7.95664519 27.06032783 10.74229737 27 14 C26.34 14 25.68 14 25 14 C25 12.02 25 10.04 25 8 C24.01 7.67 23.02 7.34 22 7 C22.020625 8.134375 22.04125 9.26875 22.0625 10.4375 C22 14 22 14 21 15 C18.46950598 15.07313567 15.96695163 15.09247527 13.4375 15.0625 C12.72658203 15.05798828 12.01566406 15.05347656 11.28320312 15.04882812 C9.52209987 15.03700864 7.76103964 15.01907263 6 15 C6 11.7 6 8.4 6 5 C9.3 4.67 12.6 4.34 16 4 C16 3.34 16 2.68 16 2 C11.05 1.67 6.1 1.34 1 1 C1 9.91 1 18.82 1 28 C2.32 28 3.64 28 5 28 C5 25.69 5 23.38 5 21 C5.33 21 5.66 21 6 21 C6 23.64 6 26.28 6 29 C4.02 29 2.04 29 0 29 C0 19.43 0 9.86 0 0 Z " fill="#4C7DB1" transform="translate(198,308)"/>
<path d="M0 0 C2.24910158 3.37365238 2.24865357 4.48944267 2.24291992 8.43579102 C2.24599655 9.55288956 2.24907318 10.6699881 2.25224304 11.82093811 C2.24505753 13.0363176 2.23787201 14.25169708 2.23046875 15.50390625 C2.23001053 16.76976059 2.22955231 18.03561493 2.2290802 19.33982849 C2.22605154 22.03763989 2.21922337 24.73511393 2.20581055 27.43286133 C2.18596219 31.4663572 2.18529849 35.49965749 2.18554688 39.53320312 C2.16227931 56.04211511 1.77587355 72.50938814 1 89 C0.01 89.495 0.01 89.495 -1 90 C-1.02314654 78.70842517 -1.04092692 67.41685596 -1.05181217 56.12526226 C-1.05703592 50.88240917 -1.0641244 45.63957228 -1.07543945 40.39672852 C-1.08628631 35.33930616 -1.09228067 30.28189941 -1.09487724 25.22446632 C-1.09672824 23.2927202 -1.10034264 21.36097496 -1.10573006 19.42923546 C-1.1129643 16.72843946 -1.11398993 14.02770839 -1.11352539 11.3269043 C-1.11712067 10.52417587 -1.12071594 9.72144745 -1.12442017 8.89439392 C-1.11838796 5.6640487 -1.02911701 3.08735103 0 0 Z " fill="#1A7DBA" transform="translate(301,156)"/>
<path d="M0 0 C3.0625 1.4375 3.0625 1.4375 5 4 C5.39854677 7.04678518 5.29353436 9.94724271 5 13 C1.30544219 12.09270815 -2.34470956 11.0544107 -6 10 C-6 10.99 -6 11.98 -6 13 C-4.68 13.66 -3.36 14.32 -2 15 C-2 15.66 -2 16.32 -2 17 C-5.67887806 17.28299062 -8.17757904 17.46392977 -11.4375 15.625 C-13.78072013 11.68839018 -14.01290285 7.46124123 -13 3 C-9.17753755 -0.88205541 -5.1373881 -0.78614836 0 0 Z " fill="#F1F5FA" transform="translate(115,314)"/>
<path d="M0 0 C3.92005939 1.30668646 4.28032042 2.78667695 6.1875 6.375 C6.71730469 7.35210937 7.24710937 8.32921875 7.79296875 9.3359375 C9 12 9 12 9 15 C5.7 15 2.4 15 -1 15 C-1 41.07 -1 67.14 -1 94 C-1.33 94 -1.66 94 -2 94 C-2 67.93 -2 41.86 -2 15 C-3.65 15 -5.3 15 -7 15 C-6.31238981 11.34435091 -4.74550455 8.48132728 -2.9375 5.25 C-2.11572266 3.77273437 -2.11572266 3.77273437 -1.27734375 2.265625 C-0.64505859 1.14414063 -0.64505859 1.14414063 0 0 Z " fill="#1B69A7" transform="translate(340,124)"/>
<path d="M0 0 C3.32878632 2.46040728 4.79301948 3.89610387 5.5625 8 C4.83444118 11.88298038 4.10071352 13.50430375 1 16 C-2.14264875 16.2735165 -5.00935873 16.01612522 -8 15 C-10.4567061 11.31494085 -10.68887481 8.27963474 -10 4 C-7.317936 -0.12625231 -4.78913194 -0.87963648 0 0 Z " fill="#EBF3F9" transform="translate(236,352)"/>
<path d="M0 0 C1.9375 1.0625 1.9375 1.0625 4 3 C4.9375 6.4375 4.9375 6.4375 5 10 C3.5 12.1875 3.5 12.1875 2 14 C2.27882869 17.06711564 3.24247137 18.36370706 5 21 C5 21.99 5 22.98 5 24 C2.69 24 0.38 24 -2 24 C-2.474375 22.865625 -2.94875 21.73125 -3.4375 20.5625 C-4.84005264 18.03280505 -5.46212744 17.16293558 -8.26953125 16.3125 C-10.53014308 16.08465881 -12.72893152 15.96603103 -15 16 C-13.68 15.01 -12.36 14.02 -11 13 C-12.32 12.67 -13.64 12.34 -15 12 C-15 11.34 -15 10.68 -15 10 C-10.05 9.67 -5.1 9.34 0 9 C0 6.03 0 3.06 0 0 Z " fill="#12569F" transform="translate(219,313)"/>
<path d="M0 0 C7.92 0 15.84 0 24 0 C24 1.65 24 3.3 24 5 C23 6 23 6 21.14233398 6.11352539 C20.35157471 6.10828857 19.56081543 6.10305176 18.74609375 6.09765625 C17.89208984 6.09443359 17.03808594 6.09121094 16.15820312 6.08789062 C15.26037109 6.07951172 14.36253906 6.07113281 13.4375 6.0625 C12.53580078 6.05798828 11.63410156 6.05347656 10.70507812 6.04882812 C8.46998686 6.03700225 6.23502563 6.0205222 4 6 C4.33 5.01 4.66 4.02 5 3 C3.68 2.67 2.36 2.34 1 2 C1 10.58 1 19.16 1 28 C8.59 28 16.18 28 24 28 C24 28.33 24 28.66 24 29 C16.08 29 8.16 29 0 29 C0 19.43 0 9.86 0 0 Z " fill="#5583B5" transform="translate(351,308)"/>
<path d="M0 0 C6.8359375 -0.1953125 6.8359375 -0.1953125 9 0 C11 2 11 2 11.265625 4.75 C11.26046875 5.8225 11.2553125 6.895 11.25 8 C11.25515625 9.0725 11.2603125 10.145 11.265625 11.25 C11 14 11 14 9 16 C5.98173347 16.27240673 3.03629378 16.08675125 0 16 C0 10.72 0 5.44 0 0 Z " fill="#587BB5" transform="translate(248,352)"/>
<path d="M0 0 C0.9075 0.33 1.815 0.66 2.75 1 C2.75 2.65 2.75 4.3 2.75 6 C1.90236084 5.97643433 1.90236084 5.97643433 1.03759766 5.95239258 C-1.51650023 5.89012955 -4.07043871 5.85103864 -6.625 5.8125 C-7.51445313 5.78736328 -8.40390625 5.76222656 -9.3203125 5.73632812 C-10.17109375 5.72666016 -11.021875 5.71699219 -11.8984375 5.70703125 C-12.68395996 5.6913208 -13.46948242 5.67561035 -14.27880859 5.65942383 C-15.25454834 5.82800903 -15.25454834 5.82800903 -16.25 6 C-17.24 7.485 -17.24 7.485 -18.25 9 C-19.24 8.01 -20.23 7.02 -21.25 6 C-21.58 7.98 -21.91 9.96 -22.25 12 C-22.58 12 -22.91 12 -23.25 12 C-23.68712969 6.75444371 -23.68712969 6.75444371 -23.25 4 C-17.02708305 -2.38667792 -8.30067457 -2.40327539 0 0 Z " fill="#125CA9" transform="translate(84.25,309)"/>
<path d="M0 0 C0.29003906 0.63292969 0.58007812 1.26585937 0.87890625 1.91796875 C1.85862157 4.1223763 1.85862157 4.1223763 3.9375 5.3125 C6.89225214 7.73002448 7.73371783 10.45440991 9 14 C9 14.99 9 15.98 9 17 C7.54257537 17.08096803 6.08387193 17.13917774 4.625 17.1875 C3.81289062 17.22230469 3.00078125 17.25710938 2.1640625 17.29296875 C1.44992188 17.19628906 0.73578125 17.09960938 0 17 C-0.66 16.01 -1.32 15.02 -2 14 C-2.928125 14.99 -2.928125 14.99 -3.875 16 C-6 18 -6 18 -8 18 C-6.65150163 13.64029169 -4.95092154 9.68658562 -2.875 5.625 C-2.33617187 4.56539063 -1.79734375 3.50578125 -1.2421875 2.4140625 C-0.83226562 1.61742187 -0.42234375 0.82078125 0 0 Z " fill="#2B69A7" transform="translate(174,310)"/>
<path d="M0 0 C15.04099757 -0.86112581 15.04099757 -0.86112581 18.875 2.375 C21.91188073 6.1264409 22.11783875 7.8658674 22.0625 12.625 C22.05347656 13.62789063 22.04445313 14.63078125 22.03515625 15.6640625 C22.02355469 16.43492187 22.01195313 17.20578125 22 18 C21.34 18.33 20.68 18.66 20 19 C18 17 18 17 17 14 C17.4375 11.3125 17.4375 11.3125 18 9 C17.1028125 8.566875 17.1028125 8.566875 16.1875 8.125 C14 7 14 7 11 5 C8.03157342 4.54084493 8.03157342 4.54084493 4.8125 4.375 C3.72582031 4.30023438 2.63914062 4.22546875 1.51953125 4.1484375 C0.68808594 4.09945313 -0.14335938 4.05046875 -1 4 C-0.67 2.68 -0.34 1.36 0 0 Z " fill="#1958A5" transform="translate(104,310)"/>
<path d="M0 0 C0.33 0 0.66 0 1 0 C1 1.65 1 3.3 1 5 C0.34 3.68 -0.32 2.36 -1 1 C-0.67 0.67 -0.34 0.34 0 0 Z M-1 2 C-1.33 32.36 -1.66 62.72 -2 94 C-2.33 94 -2.66 94 -3 94 C-3 64.3 -3 34.6 -3 4 C-10.92 4.33 -18.84 4.66 -27 5 C-27 4.34 -27 3.68 -27 3 C-18.44493196 1.57415533 -9.67307455 2 -1 2 Z " fill="#3881AA" transform="translate(302,154)"/>
<path d="M0 0 C0.495 1.98 0.495 1.98 1 4 C0.34 3.67 -0.32 3.34 -1 3 C-3.72622365 3.08933714 -6.40780106 3.23361631 -9.125 3.4375 C-11.72375 3.623125 -14.3225 3.80875 -17 4 C-17 12.91 -17 21.82 -17 31 C-30.5 31 -30.5 31 -35 29 C-35 28.67 -35 28.34 -35 28 C-29.72 28 -24.44 28 -19 28 C-19.33 19.09 -19.66 10.18 -20 1 C-10.1 0.505 -10.1 0.505 0 0 Z " fill="#1A72B1" transform="translate(338,218)"/>
<path d="M0 0 C1.65 0 3.3 0 5 0 C5 8.91 5 17.82 5 27 C3.35 27 1.7 27 0 27 C0 18.09 0 9.18 0 0 Z " fill="#1558B0" transform="translate(273,309)"/>
<path d="M0 0 C6.8359375 -0.1953125 6.8359375 -0.1953125 9 0 C11 2 11 2 11.25 4.375 C11 7 11 7 9.875 9 C8.69689905 11.09393753 8.69689905 11.09393753 9.875 13.75 C10.24625 14.4925 10.6175 15.235 11 16 C10.236875 15.195625 9.47375 14.39125 8.6875 13.5625 C6.20569102 10.83200976 6.20569102 10.83200976 3 10 C3 11.98 3 13.96 3 16 C2.01 16 1.02 16 0 16 C0 10.72 0 5.44 0 0 Z " fill="#588BC1" transform="translate(322,352)"/>
<path d="M0 0 C2.31 0 4.62 0 7 0 C7.67408308 1.26691507 8.33900497 2.53870749 9 3.8125 C9.556875 4.87404297 9.556875 4.87404297 10.125 5.95703125 C11 8 11 8 11 11 C10.34 11 9.68 11 9 11 C9.34786708 12.97536745 9.34786708 12.97536745 10 15 C10.66 15.33 11.32 15.66 12 16 C12 17.98 12 19.96 12 22 C9.36 22 6.72 22 4 22 C4.33 21.01 4.66 20.02 5 19 C5.99 19 6.98 19 8 19 C7.4083899 17.20414803 6.80125808 15.41340371 6.1875 13.625 C5.85105469 12.62726563 5.51460937 11.62953125 5.16796875 10.6015625 C3.74541387 7.43292856 2.04912362 6.52456181 -1 5 C-0.67 3.35 -0.34 1.7 0 0 Z " fill="#195D9E" transform="translate(175,309)"/>
<path d="M0 0 C3.16115776 1.36983503 3.9927092 1.9890638 6 5 C8.58935509 5.54678616 8.58935509 5.54678616 11.5 5.625 C16.84023669 5.92011834 16.84023669 5.92011834 19 7 C19.99 7 20.98 7 22 7 C22 8.32 22 9.64 22 11 C18.70840684 11.05790353 15.41694397 11.09356261 12.125 11.125 C10.71927734 11.15013672 10.71927734 11.15013672 9.28515625 11.17578125 C7.94130859 11.18544922 7.94130859 11.18544922 6.5703125 11.1953125 C5.74289551 11.20578613 4.91547852 11.21625977 4.06298828 11.22705078 C2 11 2 11 0 9 C-0.1953125 6.8359375 -0.1953125 6.8359375 -0.125 4.375 C-0.10695312 3.55773437 -0.08890625 2.74046875 -0.0703125 1.8984375 C-0.04710937 1.27195312 -0.02390625 0.64546875 0 0 Z " fill="#1759A3" transform="translate(62,314)"/>
<path d="M0 0 C1.77049689 -0.05410687 3.54146849 -0.09284119 5.3125 -0.125 C6.29863281 -0.14820313 7.28476563 -0.17140625 8.30078125 -0.1953125 C11 0 11 0 14 2 C14.25 5.0625 14.25 5.0625 14 8 C13 9 13 9 10.05859375 9.09765625 C8.26615234 9.08025391 8.26615234 9.08025391 6.4375 9.0625 C4.64119141 9.04896484 4.64119141 9.04896484 2.80859375 9.03515625 C1.88175781 9.02355469 0.95492187 9.01195312 0 9 C0 6.03 0 3.06 0 0 Z " fill="#EEF3F8" transform="translate(204,314)"/>
<path d="M0 0 C8.91 0 17.82 0 27 0 C27 1.65 27 3.3 27 5 C23.7 5 20.4 5 17 5 C16.67 4.34 16.34 3.68 16 3 C13.47266765 2.34444881 13.47266765 2.34444881 11 2 C11 2.99 11 3.98 11 5 C7.37 5 3.74 5 0 5 C0 3.35 0 1.7 0 0 Z " fill="#2D69AE" transform="translate(415,309)"/>
<path d="M0 0 C2.53358615 3.80037922 2.17668912 6.70326091 2.01171875 11.0859375 C1.98938171 11.89168716 1.96704468 12.69743683 1.94403076 13.52760315 C1.86872668 16.14382328 1.7784237 18.75928013 1.6875 21.375 C1.63283164 23.15696068 1.57887658 24.93894339 1.52563477 26.72094727 C1.15348038 38.81981319 0.68849671 50.91468536 0 63 C-0.33 63 -0.66 63 -1 63 C-1.02316284 55.22878953 -1.04093523 47.45758714 -1.05181217 39.68635082 C-1.05703236 36.07791615 -1.06411436 32.46950508 -1.07543945 28.86108398 C-1.086299 25.37923767 -1.09228336 21.89741408 -1.09487724 18.41555214 C-1.0976261 16.43964005 -1.10543327 14.4637371 -1.11329651 12.48783875 C-1.11337204 11.28682022 -1.11344757 10.0858017 -1.11352539 8.84838867 C-1.115746 7.78915695 -1.11796661 6.72992523 -1.12025452 5.63859558 C-1 3 -1 3 0 0 Z " fill="#147CCA" transform="translate(301,156)"/>
<path d="M0 0 C4.08251636 2.04125818 4.52393974 2.30300942 6.25 6.125 C6.58515625 6.84945313 6.9203125 7.57390625 7.265625 8.3203125 C7.62914062 9.15175781 7.62914062 9.15175781 8 10 C10.32472205 7.14693203 11.7508258 4.45925163 13 1 C13.99 1 14.98 1 16 1 C16 5.95 16 10.9 16 16 C15.67 16 15.34 16 15 16 C15 12.7 15 9.4 15 6 C14.34 6 13.68 6 13 6 C12.7525 6.969375 12.505 7.93875 12.25 8.9375 C11.8375 9.948125 11.425 10.95875 11 12 C8.875 12.875 8.875 12.875 7 13 C4 8.25 4 8.25 4 6 C3.34 6 2.68 6 2 6 C2 9.3 2 12.6 2 16 C1.34 16 0.68 16 0 16 C0 10.72 0 5.44 0 0 Z " fill="#4075B4" transform="translate(177,352)"/>
<path d="M0 0 C5.94 0 11.88 0 18 0 C18 1.98 18 3.96 18 6 C10.41 6 2.82 6 -5 6 C-3.68 5.67 -2.36 5.34 -1 5 C-1 4.34 -1 3.68 -1 3 C-0.01 2.67 0.98 2.34 2 2 C1.34 1.34 0.68 0.68 0 0 Z " fill="#3370A9" transform="translate(237,331)"/>
<path d="M0 0 C1.65 0 3.3 0 5 0 C5.08706892 3.27066566 5.14041241 6.54103365 5.1875 9.8125 C5.22520508 11.2056543 5.22520508 11.2056543 5.26367188 12.62695312 C5.27333984 13.51962891 5.28300781 14.41230469 5.29296875 15.33203125 C5.3086792 16.15421143 5.32438965 16.9763916 5.34057617 17.82348633 C4.92566921 20.47502434 4.04470249 21.33263592 2 23 C-0.45153075 18.26101734 -0.23154206 13.87937667 -0.125 8.6875 C-0.11597656 7.85154297 -0.10695312 7.01558594 -0.09765625 6.15429688 C-0.07420989 4.10274031 -0.03834266 2.05133223 0 0 Z " fill="#0F59A6" transform="translate(154,309)"/>
<path d="M0 0 C2.05345069 3.08017604 3.56144091 6.14627906 5.125 9.5 C5.66382813 10.6446875 6.20265625 11.789375 6.7578125 12.96875 C8 16 8 16 8 19 C6.02 19 4.04 19 2 19 C1.505 16.525 1.505 16.525 1 14 C-4.28 14 -9.56 14 -15 14 C-15 13.67 -15 13.34 -15 13 C-9.72 13 -4.44 13 1 13 C1 11.02 1 9.04 1 7 C0.01 6.67 -0.98 6.34 -2 6 C-2 4.68 -2 3.36 -2 2 C-1.34 2 -0.68 2 0 2 C0 1.34 0 0.68 0 0 Z " fill="#2869A9" transform="translate(186,318)"/>
<path d="M0 0 C6.17775033 0.03127975 11.54883489 0.44651651 17.4609375 2.265625 C17.1309375 3.915625 16.8009375 5.565625 16.4609375 7.265625 C10.8509375 6.935625 5.2409375 6.605625 -0.5390625 6.265625 C-0.5390625 5.605625 -0.5390625 4.945625 -0.5390625 4.265625 C0.7809375 3.935625 2.1009375 3.605625 3.4609375 3.265625 C0.8209375 2.935625 -1.8190625 2.605625 -4.5390625 2.265625 C-2.5390625 0.265625 -2.5390625 0.265625 0 0 Z " fill="#3172B0" transform="translate(390.5390625,307.734375)"/>
<path d="M0 0 C0.33 0 0.66 0 1 0 C1 1.65 1 3.3 1 5 C5.95 5 10.9 5 16 5 C16.33 6.65 16.66 8.3 17 10 C11.72 10 6.44 10 1 10 C1 12.31 1 14.62 1 17 C0.67 17 0.34 17 0 17 C0 11.39 0 5.78 0 0 Z " fill="#4679B3" transform="translate(356,314)"/>
<path d="M0 0 C1.81997251 0.48074745 3.63951907 0.96315815 5.45703125 1.453125 C10.23967208 2.48164991 15.12634534 2.6913352 20 3 C20 3.33 20 3.66 20 4 C15.545 4.495 15.545 4.495 11 5 C11 5.99 11 6.98 11 8 C14.3 8 17.6 8 21 8 C21 8.33 21 8.66 21 9 C3.92255125 9.738041 3.92255125 9.738041 -2 5 C-1.125 1.125 -1.125 1.125 0 0 Z " fill="#487CBB" transform="translate(382,328)"/>
<path d="M0 0 C3.15539989 0.70119998 6.00717565 1.78861871 9 3 C10.99620166 3.67795528 12.99538701 4.34733531 15 5 C15 5.66 15 6.32 15 7 C17.97 7.495 17.97 7.495 21 8 C21 8.33 21 8.66 21 9 C5.25512528 9.55353075 5.25512528 9.55353075 -2 6 C-1.49396008 3.83125748 -1.00016187 2.00032373 0 0 Z " fill="#3168A6" transform="translate(61,328)"/>
<path d="M0 0 C0 0.33 0 0.66 0 1 C-6.93 1 -13.86 1 -21 1 C-21 9.91 -21 18.82 -21 28 C-28.59 28 -36.18 28 -44 28 C-44 27.67 -44 27.34 -44 27 C-36.74 27 -29.48 27 -22 27 C-22.12568359 24.09380859 -22.12568359 24.09380859 -22.25390625 21.12890625 C-22.35704145 18.60678188 -22.45989135 16.08464584 -22.5625 13.5625 C-22.61857422 12.28310547 -22.67464844 11.00371094 -22.73242188 9.68554688 C-22.78076172 8.47060547 -22.82910156 7.25566406 -22.87890625 6.00390625 C-22.9260376 4.87799072 -22.97316895 3.7520752 -23.02172852 2.59204102 C-23 0 -23 0 -22 -1 C-14.35300832 -2.16649026 -7.3270095 -2.79124171 0 0 Z " fill="#4D8ABC" transform="translate(343,222)"/>
<path d="M0 0 C0.33 0.66 0.66 1.32 1 2 C3.31 1.34 5.62 0.68 8 0 C8 0.99 8 1.98 8 3 C7.34 3 6.68 3 6 3 C6 29.07 6 55.14 6 82 C5.67 82 5.34 82 5 82 C5 55.93 5 29.86 5 3 C3.35 3 1.7 3 0 3 C0 2.01 0 1.02 0 0 Z " fill="#63859C" transform="translate(333,136)"/>
<path d="M0 0 C-0.33 1.32 -0.66 2.64 -1 4 C-7.27 4 -13.54 4 -20 4 C-20 2.68 -20 1.36 -20 0 C-14.42639644 -2.78680178 -5.98589137 -1.06415847 0 0 Z " fill="#EFF5FA" transform="translate(407,315)"/>
<path d="M0 0 C3.33571429 1.11190476 3.58417079 1.46320673 5.1875 4.375 C5.70376953 5.28378906 5.70376953 5.28378906 6.23046875 6.2109375 C7 8 7 8 7 11 C7.66 11 8.32 11 9 11 C9.0825 10.29875 9.165 9.5975 9.25 8.875 C10.18009005 5.3096548 11.76686369 2.90984428 14 0 C14.66 0 15.32 0 16 0 C16 5.28 16 10.56 16 16 C15.67 16 15.34 16 15 16 C15 12.37 15 8.74 15 5 C12.07175348 7.92824652 10.72760033 10.2979993 9 14 C7.125 13.375 7.125 13.375 5 12 C4.27306096 10.02111039 3.60183749 8.02045442 3 6 C2.34 5.67 1.68 5.34 1 5 C1 8.63 1 12.26 1 16 C0.67 16 0.34 16 0 16 C0 10.72 0 5.44 0 0 Z " fill="#2A5392" transform="translate(202,352)"/>
<path d="M0 0 C3.32878632 2.46040728 4.79301948 3.89610387 5.5625 8 C4.83444118 11.88298038 4.10071352 13.50430375 1 16 C-2.14264875 16.2735165 -5.00935873 16.01612522 -8 15 C-10.4567061 11.31494085 -10.68887481 8.27963474 -10 4 C-7.317936 -0.12625231 -4.78913194 -0.87963648 0 0 Z M-6.8125 3.125 C-8.53501881 5.84476654 -8.32855599 7.84586249 -8 11 C-7.01 12.485 -7.01 12.485 -6 14 C-3.04253508 14.58345476 -3.04253508 14.58345476 0 14 C2.35210784 11.88310295 2.91810953 10.55958485 3.375 7.4375 C3.17034039 4.98686526 3.17034039 4.98686526 1.8125 3.1875 C-1.20376831 1.21132421 -3.75436831 1.22684929 -6.8125 3.125 Z " fill="#2F62AA" transform="translate(236,352)"/>
<path d="M0 0 C1.98 0 3.96 0 6 0 C6 9.57 6 19.14 6 29 C4.02 29 2.04 29 0 29 C0 28.67 0 28.34 0 28 C1.65 28 3.3 28 5 28 C4.85946128 25.37461716 4.71281053 22.74982573 4.5625 20.125 C4.52318359 19.37863281 4.48386719 18.63226563 4.44335938 17.86328125 C4.28426376 13.80013136 4.28426376 13.80013136 3 10 C1.35 10 -0.3 10 -2 10 C-1.34 9.67 -0.68 9.34 0 9 C0 6.03 0 3.06 0 0 Z " fill="#417BB3" transform="translate(308,308)"/>
<path d="M0 0 C0.79921875 0.00902344 1.5984375 0.01804687 2.421875 0.02734375 C3.02515625 0.03894531 3.6284375 0.05054688 4.25 0.0625 C4.58 0.7225 4.91 1.3825 5.25 2.0625 C0.96 2.0625 -3.33 2.0625 -7.75 2.0625 C-7.75 3.0525 -7.75 4.0425 -7.75 5.0625 C-7.09 5.7225 -6.43 6.3825 -5.75 7.0625 C-6.31589844 7.35382813 -6.88179687 7.64515625 -7.46484375 7.9453125 C-12.38215516 10.54520754 -12.38215516 10.54520754 -14.75 15.375 C-14.75 16.261875 -14.75 17.14875 -14.75 18.0625 C-15.41 18.0625 -16.07 18.0625 -16.75 18.0625 C-17.17034404 11.96751137 -16.82814737 8.93362047 -12.75 4.0625 C-8.79436134 0.47770247 -5.22744267 -0.07687416 0 0 Z " fill="#2F6AA7" transform="translate(111.75,307.9375)"/>
<path d="M0 0 C0.99 1.485 0.99 1.485 2 3 C2.47953125 2.67257812 2.9590625 2.34515625 3.453125 2.0078125 C7.20479418 0.52325629 10.75680741 0.78891127 14.75 0.875 C15.93916016 0.88853516 15.93916016 0.88853516 17.15234375 0.90234375 C19.10169281 0.92582988 21.05088575 0.96169863 23 1 C23 2.32 23 3.64 23 5 C15.41 5 7.82 5 0 5 C0 3.35 0 1.7 0 0 Z " fill="#15559F" transform="translate(352,331)"/>
<path d="M0 0 C1.98 0 3.96 0 6 0 C5.02688873 0.53884575 5.02688873 0.53884575 4.03411865 1.08857727 C1.71792823 2.88285346 1.71792823 2.88285346 1.48101807 5.94230652 C1.47213562 7.14365738 1.46325317 8.34500824 1.45410156 9.58276367 C1.44376389 10.24644455 1.43342621 10.91012543 1.42277527 11.59391785 C1.39329978 13.78551441 1.39184723 15.97618938 1.390625 18.16796875 C1.37564639 19.68827582 1.35891991 21.2085666 1.34051514 22.72883606 C1.29679276 26.72863504 1.27683198 30.72821452 1.26177979 34.72821045 C1.24222609 38.81047573 1.20025424 42.89250334 1.16015625 46.97460938 C1.08480137 54.98301081 1.03454218 62.99131905 1 71 C0.67 71 0.34 71 0 71 C0 47.57 0 24.14 0 0 Z " fill="#E8F2F8" transform="translate(219,204)"/>
<path d="M0 0 C3.3 0 6.6 0 10 0 C10 0.66 10 1.32 10 2 C7.69 2.33 5.38 2.66 3 3 C2.67 4.32 2.34 5.64 2 7 C3.98 7 5.96 7 8 7 C8 7.66 8 8.32 8 9 C6.35 9.33 4.7 9.66 3 10 C2.67 11.32 2.34 12.64 2 14 C4.64 14 7.28 14 10 14 C10 14.66 10 15.32 10 16 C6.7 16 3.4 16 0 16 C0 10.72 0 5.44 0 0 Z " fill="#416CA7" transform="translate(305,352)"/>
<path d="M0 0 C0.99 0 1.98 0 3 0 C3.8916376 5.81215618 4.00380742 11.146336 3.5625 17 C3.51029297 17.77472656 3.45808594 18.54945313 3.40429688 19.34765625 C3.27633098 21.23224487 3.13914404 23.11620371 3 25 C2.01 25 1.02 25 0 25 C0 16.75 0 8.5 0 0 Z " fill="#1059AD" transform="translate(287,310)"/>
<path d="M0 0 C1.65 0 3.3 0 5 0 C5 4.95 5 9.9 5 15 C4.34 14.34 3.68 13.68 3 13 C2.34 14.98 1.68 16.96 1 19 C0.67 19 0.34 19 0 19 C0 12.73 0 6.46 0 0 Z " fill="#18579C" transform="translate(132,309)"/>
<path d="M0 0 C0.33 0 0.66 0 1 0 C1 6.93 1 13.86 1 21 C1.66 21 2.32 21 3 21 C2.979375 19.865625 2.95875 18.73125 2.9375 17.5625 C3 14 3 14 4 13 C4.23481693 10.81707226 4.41363323 8.62796826 4.5625 6.4375 C4.64628906 5.23996094 4.73007812 4.04242188 4.81640625 2.80859375 C4.87699219 1.88175781 4.93757813 0.95492188 5 0 C5.33 0 5.66 0 6 0 C6.02887512 3.64581687 6.04675585 7.29160463 6.0625 10.9375 C6.07087891 11.97841797 6.07925781 13.01933594 6.08789062 14.09179688 C6.09111328 15.08115234 6.09433594 16.07050781 6.09765625 17.08984375 C6.10289307 18.00628662 6.10812988 18.92272949 6.11352539 19.86694336 C6 22 6 22 5 23 C3.35 23 1.7 23 0 23 C0 15.41 0 7.82 0 0 Z " fill="#3F72AD" transform="translate(426,314)"/>
<path d="M0 0 C1.65 0.33 3.3 0.66 5 1 C5 4.96 5 8.92 5 13 C3.02 13.99 3.02 13.99 1 15 C1 14.34 1 13.68 1 13 C1.66 13 2.32 13 3 13 C3 11.68 3 10.36 3 9 C0.69 9 -1.62 9 -4 9 C-4 10.65 -4 12.3 -4 14 C-4.33 14 -4.66 14 -5 14 C-5 9.71 -5 5.42 -5 1 C-4.34 2.32 -3.68 3.64 -3 5 C-1.35 5 0.3 5 2 5 C2 4.01 2 3.02 2 2 C1.34 1.34 0.68 0.68 0 0 Z " fill="#3A6EAE" transform="translate(254,353)"/>
<path d="M0 0 C3 1 3 1 4.6875 4.375 C6 8 6 8 6 11 C3.03 11 0.06 11 -3 11 C-2.44894091 7.0507432 -1.61064629 3.65079826 0 0 Z " fill="#DAE6F1" transform="translate(177,316)"/>
<path d="M0 0 C0.99 0 1.98 0 3 0 C3 4.62 3 9.24 3 14 C5.31 14 7.62 14 10 14 C10 14.66 10 15.32 10 16 C6.7 16 3.4 16 0 16 C0 10.72 0 5.44 0 0 Z " fill="#5173A7" transform="translate(278,352)"/>
<path d="M0 0 C6.70518586 -0.19818283 12.65176798 -0.30844801 19 2 C19 3.65 19 5.3 19 7 C13.39 6.67 7.78 6.34 2 6 C2 5.67 2 5.34 2 5 C6.455 4.505 6.455 4.505 11 4 C11 3.34 11 2.68 11 2 C7.37 1.67 3.74 1.34 0 1 C0 0.67 0 0.34 0 0 Z " fill="#3471B3" transform="translate(68,308)"/>
<path d="M0 0 C0.33 0 0.66 0 1 0 C1 1.65 1 3.3 1 5 C0.34 3.68 -0.32 2.36 -1 1 C-0.67 0.67 -0.34 0.34 0 0 Z M-10.625 1.9375 C-9.69816406 1.94201172 -8.77132813 1.94652344 -7.81640625 1.95117188 C-5.54420291 1.96288426 -3.27213612 1.97928628 -1 2 C-1.33 4.64 -1.66 7.28 -2 10 C-2.33 10 -2.66 10 -3 10 C-3 8.02 -3 6.04 -3 4 C-10.92 4.33 -18.84 4.66 -27 5 C-27 4.34 -27 3.68 -27 3 C-21.51730931 1.84335263 -16.19660726 1.88583745 -10.625 1.9375 Z " fill="#2D77AD" transform="translate(302,154)"/>
<path d="M0 0 C0.66 0.33 1.32 0.66 2 1 C2.02693575 3.12493141 2.04636628 5.24995912 2.0625 7.375 C2.07410156 8.55835938 2.08570312 9.74171875 2.09765625 10.9609375 C2 14 2 14 1 16 C0.01 15.67 -0.98 15.34 -2 15 C-3.86362127 11.27275745 -4.0739503 9.3697515 -3.25 5.25 C-2 2 -2 2 0 0 Z " fill="#1558A6" transform="translate(100,317)"/>
<path d="M0 0 C5.94 0 11.88 0 18 0 C18 0.33 18 0.66 18 1 C15.03 1 12.06 1 9 1 C9 1.66 9 2.32 9 3 C10.65 3.33 12.3 3.66 14 4 C14 4.33 14 4.66 14 5 C9.38 5 4.76 5 0 5 C0 3.35 0 1.7 0 0 Z " fill="#E9EEF4" transform="translate(237,314)"/>
<path d="M0 0 C-0.33 9.9 -0.66 19.8 -1 30 C0.32 30.33 1.64 30.66 3 31 C1.35 31 -0.3 31 -2 31 C-2 22.09 -2 13.18 -2 4 C-4.31 4 -6.62 4 -9 4 C-5.75598892 0.15524613 -5.43946513 0 0 0 Z " fill="#3A96C1" transform="translate(251,199)"/>
<path d="M0 0 C0.66 0 1.32 0 2 0 C3.07848723 5.05440286 2.9754368 9.64238358 2.625 14.75 C2.55925781 15.90048828 2.55925781 15.90048828 2.4921875 17.07421875 C2.13425868 22.73148265 2.13425868 22.73148265 1 25 C1.99 25.33 2.98 25.66 4 26 C2.68 26 1.36 26 0 26 C0 17.42 0 8.84 0 0 Z " fill="#054D98" transform="translate(199,310)"/>
<path d="M0 0 C0.33 0 0.66 0 1 0 C1 2.97 1 5.94 1 9 C2.11375 8.938125 3.2275 8.87625 4.375 8.8125 C6.169375 8.9053125 6.169375 8.9053125 8 9 C8.99 10.485 8.99 10.485 10 12 C7.69 12.33 5.38 12.66 3 13 C2.67 14.98 2.34 16.96 2 19 C1.01 19 0.02 19 -1 19 C-0.67 12.73 -0.34 6.46 0 0 Z " fill="#0C57A4" transform="translate(201,316)"/>
<path d="M0 0 C0.99 0 1.98 0 3 0 C3 5.61 3 11.22 3 17 C2.01 17 1.02 17 0 17 C0 11.39 0 5.78 0 0 Z " fill="#5988C4" transform="translate(166,352)"/>
<path d="M0 0 C0.99 0 1.98 0 3 0 C3 5.61 3 11.22 3 17 C2.01 17 1.02 17 0 17 C0 11.39 0 5.78 0 0 Z " fill="#5D85BF" transform="translate(267,352)"/>
<path d="M0 0 C1.98 0 3.96 0 6 0 C6 3.61029169 5.03907418 6.55806676 4 10 C3.67 8.68 3.34 7.36 3 6 C-3.27 6 -9.54 6 -16 6 C-16 5.67 -16 5.34 -16 5 C-8.08 4.505 -8.08 4.505 0 4 C0 2.68 0 1.36 0 0 Z " fill="#306CA7" transform="translate(401,319)"/>
<path d="M0 0 C0.99 0 1.98 0 3 0 C3 4.95 3 9.9 3 15 C2.67 15 2.34 15 2 15 C2 11.7 2 8.4 2 5 C1.34 5 0.68 5 0 5 C-0.2475 5.969375 -0.495 6.93875 -0.75 7.9375 C-1.1625 8.948125 -1.575 9.95875 -2 11 C-4.125 11.875 -4.125 11.875 -6 12 C-6.33 10.68 -6.66 9.36 -7 8 C-6.01 8.33 -5.02 8.66 -4 9 C-2.68 6.03 -1.36 3.06 0 0 Z " fill="#396AA1" transform="translate(190,353)"/>
<path d="M0 0 C0 0.33 0 0.66 0 1 C-7.59 1 -15.18 1 -23 1 C-22.67 0.34 -22.34 -0.32 -22 -1 C-14.54546704 -2.48809886 -7.1310348 -2.71658468 0 0 Z " fill="#3C86C2" transform="translate(343,222)"/>
<path d="M0 0 C0.66 0 1.32 0 2 0 C2 1.98 2 3.96 2 6 C2.86625 6.061875 2.86625 6.061875 3.75 6.125 C7.13312465 7.44065958 8.19222685 9.96552364 10 13 C9.67 13.66 9.34 14.32 9 15 C8.1028125 13.7934375 8.1028125 13.7934375 7.1875 12.5625 C5.19052724 9.77672016 5.19052724 9.77672016 2 9 C2 10.98 2 12.96 2 15 C1.34 15 0.68 15 0 15 C0 10.05 0 5.1 0 0 Z " fill="#2861B0" transform="translate(323,353)"/>
<path d="M0 0 C4.875 0.875 4.875 0.875 6 2 C7.34747084 2.23075082 8.70377565 2.41153063 10.0625 2.5625 C11.361875 2.706875 12.66125 2.85125 14 3 C12.78515625 4.51171875 12.78515625 4.51171875 11 6 C8.80859375 6.14453125 8.80859375 6.14453125 6.4375 5.8125 C5.65246094 5.71582031 4.86742187 5.61914062 4.05859375 5.51953125 C2 5 2 5 0 3 C0 2.01 0 1.02 0 0 Z " fill="#0D58AB" transform="translate(136,329)"/>
<path d="M0 0 C4.95 0 9.9 0 15 0 C15 0.99 15 1.98 15 3 C10.38 3 5.76 3 1 3 C0.67 2.01 0.34 1.02 0 0 Z " fill="#0854A1" transform="translate(237,320)"/>
<path d="M0 0 C6.52307692 0.61538462 6.52307692 0.61538462 8.9375 2.5625 C9.288125 3.036875 9.63875 3.51125 10 4 C9.67 4.99 9.34 5.98 9 7 C6.69 7 4.38 7 2 7 C2 5.02 2 3.04 2 1 C1.34 0.67 0.68 0.34 0 0 Z " fill="#1E5D9B" transform="translate(288,309)"/>
<path d="M0 0 C-0.33 1.65 -0.66 3.3 -1 5 C-6.61 5 -12.22 5 -18 5 C-18 4.67 -18 4.34 -18 4 C-14.7 4 -11.4 4 -8 4 C-7.67 3.01 -7.34 2.02 -7 1 C-4 0 -4 0 0 0 Z " fill="#356DAE" transform="translate(375,309)"/>
<path d="M0 0 C2.31 0 4.62 0 7 0 C6.34 1.98 5.68 3.96 5 6 C3 6 1 6 -1 6 C-1 7.32 -1 8.64 -1 10 C-1.66 10 -2.32 10 -3 10 C-2.49287967 6.28111761 -1.88391785 3.26545761 0 0 Z " fill="#3369AD" transform="translate(340,309)"/>
<path d="M0 0 C7.26 0 14.52 0 22 0 C22 1.32 22 2.64 22 4 C19.69 4 17.38 4 15 4 C15 3.01 15 2.02 15 1 C10.05 1 5.1 1 0 1 C0 0.67 0 0.34 0 0 Z " fill="#1C599C" transform="translate(232,309)"/>
<path d="M0 0 C0.33 0 0.66 0 1 0 C1 7.92 1 15.84 1 24 C0.01 24 -0.98 24 -2 24 C-2.11476722 18.59876785 -1.67917842 13.41791362 -1 8.0625 C-0.90460938 7.28326172 -0.80921875 6.50402344 -0.7109375 5.70117188 C-0.47770389 3.80031793 -0.23938136 1.90008953 0 0 Z " fill="#0D63A3" transform="translate(341,198)"/>
<path d="M0 0 C0.33 0 0.66 0 1 0 C1.03738281 0.60328125 1.07476562 1.2065625 1.11328125 1.828125 C1.50045444 6.53493631 1.85720665 9.33340776 5 13 C5.6875 15.75 5.6875 15.75 6 18 C1.25 17.25 1.25 17.25 -1 15 C-0.71731559 13.65501732 -0.37237211 12.32296179 0 11 C0.06688591 9.08438746 0.08531719 7.16664408 0.0625 5.25 C0.05347656 4.26515625 0.04445313 3.2803125 0.03515625 2.265625 C0.02355469 1.51796875 0.01195313 0.7703125 0 0 Z " fill="#3C75B6" transform="translate(101,318)"/>
<path d="M0 0 C4.62 0 9.24 0 14 0 C14 0.99 14 1.98 14 3 C9.38 3 4.76 3 0 3 C0 2.01 0 1.02 0 0 Z " fill="#0F5199" transform="translate(358,320)"/>
<path d="M0 0 C1.74991334 -0.02715383 3.49994945 -0.04646551 5.25 -0.0625 C6.71179688 -0.07990234 6.71179688 -0.07990234 8.203125 -0.09765625 C10.65758678 -0.01195577 12.66168914 0.29293934 15 1 C15 1.66 15 2.32 15 3 C12.59454362 4.20272819 11.05003047 4.10071472 8.375 4.0625 C7.14910156 4.04896484 7.14910156 4.04896484 5.8984375 4.03515625 C4.95871094 4.01775391 4.95871094 4.01775391 4 4 C4.33 3.01 4.66 2.02 5 1 C3.35 1 1.7 1 0 1 C0 0.67 0 0.34 0 0 Z " fill="#145697" transform="translate(71,332)"/>
<path d="M0 0 C2.97 0 5.94 0 9 0 C9.38218767 1.65614657 9.71395102 3.32457024 10 5 C9 6 9 6 6.93359375 6.09765625 C6.10988281 6.08605469 5.28617188 6.07445312 4.4375 6.0625 C3.61121094 6.05347656 2.78492188 6.04445313 1.93359375 6.03515625 C1.29550781 6.02355469 0.65742188 6.01195312 0 6 C1.32 5.01 2.64 4.02 4 3 C2.68 2.67 1.36 2.34 0 2 C0 1.34 0 0.68 0 0 Z " fill="#3F73AA" transform="translate(204,323)"/>
<path d="M0 0 C0.66 0 1.32 0 2 0 C2.33 3.96 2.66 7.92 3 12 C2.01 11.67 1.02 11.34 0 11 C-0.33 10.01 -0.66 9.02 -1 8 C-1.99 7.67 -2.98 7.34 -4 7 C-2.68 4.69 -1.36 2.38 0 0 Z " fill="#BACFE4" transform="translate(215,357)"/>
<path d="M0 0 C2 1.8125 2 1.8125 4 4 C4 4.99 4 5.98 4 7 C1.69 7 -0.62 7 -3 7 C-3.33 6.01 -3.66 5.02 -4 4 C-2.68 2.68 -1.36 1.36 0 0 Z " fill="#3273B3" transform="translate(220,330)"/>
<path d="M0 0 C0.33 0 0.66 0 1 0 C1.66 2.31 2.32 4.62 3 7 C7.25731568 7.40749675 7.25731568 7.40749675 10.875 5.5 C11.24625 5.005 11.6175 4.51 12 4 C11.125 8.875 11.125 8.875 10 10 C8.00390625 10.01953125 8.00390625 10.01953125 5.5625 9.8125 C4.75941406 9.75707031 3.95632812 9.70164062 3.12890625 9.64453125 C1 9 1 9 -0.30859375 7.12109375 C-1.18670416 4.42722961 -0.74840658 2.69426369 0 0 Z " fill="#3F69AD" transform="translate(227,358)"/>
<path d="M0 0 C3 1 3 1 4.75 3.3125 C6 6 6 6 5.6875 8.3125 C5.460625 8.869375 5.23375 9.42625 5 10 C4.71125 9.360625 4.4225 8.72125 4.125 8.0625 C3.17176549 5.84793921 3.17176549 5.84793921 1 5 C1 8.63 1 12.26 1 16 C0.67 16 0.34 16 0 16 C0 10.72 0 5.44 0 0 Z " fill="#29508C" transform="translate(202,352)"/>
<path d="M0 0 C1.32 0 2.64 0 4 0 C4 2.97 4 5.94 4 9 C3.01 9.495 3.01 9.495 2 10 C0 8 0 8 -1 5 C-0.5625 2.3125 -0.5625 2.3125 0 0 Z " fill="#0A54A8" transform="translate(122,319)"/>
<path d="M0 0 C2.64 0.33 5.28 0.66 8 1 C8.33 2.32 8.66 3.64 9 5 C5.625 5.125 5.625 5.125 2 5 C1.34 4.34 0.68 3.68 0 3 C0 2.01 0 1.02 0 0 Z " fill="#1151A2" transform="translate(105,331)"/>
<path d="M0 0 C-0.99 0.33 -1.98 0.66 -3 1 C-3 1.66 -3 2.32 -3 3 C1.95 3 6.9 3 12 3 C12 3.33 12 3.66 12 4 C6.06 4 0.12 4 -6 4 C-6 2.68 -6 1.36 -6 0 C-3.50907189 -1.24546405 -2.58919267 -0.7767578 0 0 Z " fill="#C4DDF1" transform="translate(393,315)"/>
<path d="M0 0 C1.32 0 2.64 0 4 0 C4 0.66 4 1.32 4 2 C5.98 2.66 7.96 3.32 10 4 C10 4.66 10 5.32 10 6 C3.375 5.25 3.375 5.25 0 3 C0 2.01 0 1.02 0 0 Z " fill="#2D66A5" transform="translate(380,330)"/>
<path d="M0 0 C1.65 0 3.3 0 5 0 C5 0.66 5 1.32 5 2 C4.34 2 3.68 2 3 2 C2.05675742 6.31196609 1.51958285 10.62065881 1 15 C0.67 15 0.34 15 0 15 C0 10.05 0 5.1 0 0 Z " fill="#10488B" transform="translate(154,309)"/>
<path d="M0 0 C0.33 0.66 0.66 1.32 1 2 C3.31 1.34 5.62 0.68 8 0 C8 0.99 8 1.98 8 3 C7.34 3 6.68 3 6 3 C6 8.28 6 13.56 6 19 C5.67 19 5.34 19 5 19 C5 13.72 5 8.44 5 3 C3.35 3 1.7 3 0 3 C0 2.01 0 1.02 0 0 Z " fill="#5086AE" transform="translate(333,136)"/>
<path d="M0 0 C0.99 0.33 1.98 0.66 3 1 C4.15837626 5.05431692 3.83691257 7.21812119 2 11 C1.34 11 0.68 11 0 11 C0 7.37 0 3.74 0 0 Z " fill="#B4CCE6" transform="translate(203,357)"/>
<path d="M0 0 C1.67542976 0.28604898 3.34385343 0.61781233 5 1 C5 2.32 5 3.64 5 5 C3.35 5.33 1.7 5.66 0 6 C-0.38218767 4.34385343 -0.71395102 2.67542976 -1 1 C-0.67 0.67 -0.34 0.34 0 0 Z " fill="#D6E5EE" transform="translate(325,354)"/>
<path d="M0 0 C2.62187494 1.04874998 3.79371361 1.64931313 5.25 4.125 C5.4975 4.74375 5.745 5.3625 6 6 C5.34 6 4.68 6 4 6 C4 6.66 4 7.32 4 8 C2.68 8 1.36 8 0 8 C0 5.36 0 2.72 0 0 Z " fill="#0D50A5" transform="translate(62,314)"/>
<path d="M0 0 C0.66 0.33 1.32 0.66 2 1 C2 3.97 2 6.94 2 10 C0.35 10 -1.3 10 -3 10 C-2.34 9.34 -1.68 8.68 -1 8 C-0.95907063 5.66702567 -0.95758277 3.33294775 -1 1 C-0.67 0.67 -0.34 0.34 0 0 Z " fill="#08529C" transform="translate(276,326)"/>
<path d="M0 0 C0.99 0.33 1.98 0.66 3 1 C3 3.31 3 5.62 3 8 C1.68 7.01 0.36 6.02 -1 5 C-1.33 6.98 -1.66 8.96 -2 11 C-2.33 11 -2.66 11 -3 11 C-3.36923077 3.49230769 -3.36923077 3.49230769 -1.5 1 C-1.005 0.67 -0.51 0.34 0 0 Z " fill="#3064A2" transform="translate(64,310)"/>
<path d="M0 0 C1.65 0 3.3 0 5 0 C5.5625 1.9375 5.5625 1.9375 6 4 C5 5 5 5 2.4375 5.0625 C1.2309375 5.0315625 1.2309375 5.0315625 0 5 C0 3.35 0 1.7 0 0 Z " fill="#D6E9F3" transform="translate(251,354)"/>
<path d="M0 0 C0.66 0 1.32 0 2 0 C2 1.98 2 3.96 2 6 C-0.64 6 -3.28 6 -6 6 C-5.67 5.01 -5.34 4.02 -5 3 C-3.35 2.67 -1.7 2.34 0 2 C0 1.34 0 0.68 0 0 Z " fill="#0C4E95" transform="translate(185,325)"/>
<path d="M0 0 C0.33 1.32 0.66 2.64 1 4 C3.31 3.34 5.62 2.68 8 2 C8 1.67 8 1.34 8 1 C10.31 1 12.62 1 15 1 C13.68 1.33 12.36 1.66 11 2 C11 2.99 11 3.98 11 5 C7.37 5 3.74 5 0 5 C0 3.35 0 1.7 0 0 Z " fill="#387DBE" transform="translate(415,309)"/>
<path d="M0 0 C7.04440079 -0.21133202 13.24112575 -0.07965362 20 2 C19.67 3.32 19.34 4.64 19 6 C19 5.01 19 4.02 19 3 C16.69 3.33 14.38 3.66 12 4 C11.67 3.34 11.34 2.68 11 2 C8.41394668 1.5316735 8.41394668 1.5316735 5.4375 1.375 C3.91962891 1.26285156 3.91962891 1.26285156 2.37109375 1.1484375 C1.19740234 1.07496094 1.19740234 1.07496094 0 1 C0 0.67 0 0.34 0 0 Z " fill="#568CBA" transform="translate(388,308)"/>
<path d="M0 0 C3 3.625 3 3.625 3 7 C1.02 7 -0.96 7 -3 7 C-3 3 -3 3 -1.5 1.25 C-1.005 0.8375 -0.51 0.425 0 0 Z " fill="#387BB0" transform="translate(346,132)"/>
<path d="M0 0 C2.5654594 2.5654594 2.54046087 4.47686668 3 8 C1.02 8 -0.96 8 -3 8 C-2.67 6.68 -2.34 5.36 -2 4 C-1.34 4 -0.68 4 0 4 C0 2.68 0 1.36 0 0 Z " fill="#3B78B4" transform="translate(191,329)"/>
<path d="M0 0 C6.27 0 12.54 0 19 0 C15.71299843 1.64350079 13.52069985 2.41321669 10 3 C10 2.67 10 2.34 10 2 C6.7 1.67 3.4 1.34 0 1 C0 0.67 0 0.34 0 0 Z " fill="#3F77B3" transform="translate(68,319)"/>
<path d="M0 0 C0.28875 0.61875 0.5775 1.2375 0.875 1.875 C1.93720042 4.13325765 1.93720042 4.13325765 4 6 C3.01 7.485 3.01 7.485 2 9 C1.34 8.34 0.68 7.68 0 7 C-0.99 7 -1.98 7 -3 7 C-1.125 1.125 -1.125 1.125 0 0 Z " fill="#3271AB" transform="translate(174,310)"/>
<path d="M0 0 C1.98 0 3.96 0 6 0 C6 1.32 6 2.64 6 4 C4.02 4 2.04 4 0 4 C0 2.68 0 1.36 0 0 Z " fill="#E9F6F5" transform="translate(251,362)"/>
<path d="M0 0 C0.33 0 0.66 0 1 0 C1 2.31 1 4.62 1 7 C-0.65 6.67 -2.3 6.34 -4 6 C-3.34 5.34 -2.68 4.68 -2 4 C-4.31 3.67 -6.62 3.34 -9 3 C-9 2.67 -9 2.34 -9 2 C-6.94921875 1.77213542 -4.8984375 1.54427083 -2.84765625 1.31640625 C-0.98859771 1.18113386 -0.98859771 1.18113386 0 0 Z " fill="#2D70B7" transform="translate(151,329)"/>
<path d="M0 0 C1.98 0.99 1.98 0.99 4 2 C3.67 3.65 3.34 5.3 3 7 C2.01 7 1.02 7 0 7 C0 4.69 0 2.38 0 0 Z " fill="#0D5396" transform="translate(382,314)"/>
<path d="M0 0 C0.66 0.33 1.32 0.66 2 1 C1.67 2.98 1.34 4.96 1 7 C-2 5 -2 5 -2.6875 2.875 C-2.790625 2.25625 -2.89375 1.6375 -3 1 C-2.01 0.67 -1.02 0.34 0 0 Z " fill="#145BA1" transform="translate(174,316)"/>
<path d="M0 0 C0.66 0 1.32 0 2 0 C2 1.98 2 3.96 2 6 C-1.3 6 -4.6 6 -8 6 C-8 5.67 -8 5.34 -8 5 C-6.865625 4.731875 -5.73125 4.46375 -4.5625 4.1875 C-3.386875 3.795625 -2.21125 3.40375 -1 3 C-0.67 2.01 -0.34 1.02 0 0 Z " fill="#2596CA" transform="translate(216,268)"/>
<path d="M0 0 C0.99 0 1.98 0 3 0 C3 4.95 3 9.9 3 15 C2.67 15 2.34 15 2 15 C2 11.37 2 7.74 2 4 C1.34 4 0.68 4 0 4 C0 2.68 0 1.36 0 0 Z " fill="#1B4C90" transform="translate(190,353)"/>
<path d="M0 0 C0.33 0 0.66 0 1 0 C1.3125 3.1875 1.3125 3.1875 1 7 C-1.5 9.9375 -1.5 9.9375 -4 12 C-4.33 11.34 -4.66 10.68 -5 10 C-4.34 9.01 -3.68 8.02 -3 7 C-2.34 7 -1.68 7 -1 7 C-0.67 4.69 -0.34 2.38 0 0 Z " fill="#2E629E" transform="translate(410,323)"/>
<path d="M0 0 C2.18975773 3.28463659 2.99806563 6.20696275 4 10 C2.68 10 1.36 10 0 10 C0 6.7 0 3.4 0 0 Z " fill="#034C91" transform="translate(309,326)"/>
<path d="M0 0 C1.98 0.66 3.96 1.32 6 2 C6 3.65 6 5.3 6 7 C4 7 4 7 1.875 5.1875 C0 3 0 3 0 0 Z " fill="#104E97" transform="translate(303,316)"/>
<path d="M0 0 C0.99 0.33 1.98 0.66 3 1 C2.34 2.32 1.68 3.64 1 5 C0.01 4.67 -0.98 4.34 -2 4 C-2 6.31 -2 8.62 -2 11 C-2.33 11 -2.66 11 -3 11 C-3.36923077 3.49230769 -3.36923077 3.49230769 -1.5 1 C-1.005 0.67 -0.51 0.34 0 0 Z " fill="#4A7CA8" transform="translate(384,310)"/>
<path d="M0 0 C0.33 0 0.66 0 1 0 C1.17835515 4.54805635 0.99785435 7.8794254 -1 12 C-1.33 12 -1.66 12 -2 12 C-2.33 9.69 -2.66 7.38 -3 5 C-2.34 4.67 -1.68 4.34 -1 4 C-0.34786708 1.97536745 -0.34786708 1.97536745 0 0 Z " fill="#1D63B2" transform="translate(343,310)"/>
<path d="M0 0 C0.7425 0.0825 1.485 0.165 2.25 0.25 C1.92 1.9 1.59 3.55 1.25 5.25 C-1.39 4.92 -4.03 4.59 -6.75 4.25 C-3.42692308 0.31153846 -3.42692308 0.31153846 0 0 Z " fill="#2F92CD" transform="translate(248.75,198.75)"/>
<path d="M0 0 C0.33 0 0.66 0 1 0 C1.20086443 3.71599191 1.1519437 4.77208445 -1 8 C-2.32 7.34 -3.64 6.68 -5 6 C-4.34 4.68 -3.68 3.36 -3 2 C-3 2.99 -3 3.98 -3 5 C-2.34 5 -1.68 5 -1 5 C-0.67 3.35 -0.34 1.7 0 0 Z " fill="#5176AC" transform="translate(212,358)"/>
<path d="M0 0 C4.29 0 8.58 0 13 0 C13 1.32 13 2.64 13 4 C12.01 4 11.02 4 10 4 C10 3.01 10 2.02 10 1 C6.7 1 3.4 1 0 1 C0 0.67 0 0.34 0 0 Z " fill="#195393" transform="translate(362,332)"/>
<path d="M0 0 C1.9375 0.375 1.9375 0.375 4 1 C5.35439668 3.70879335 5.06501451 6.00933268 5 9 C4.01 9.495 4.01 9.495 3 10 C2.87625 8.906875 2.7525 7.81375 2.625 6.6875 C2.24535199 2.92618198 2.24535199 2.92618198 0 0 Z " fill="#2C5094" transform="translate(236,354)"/>
<path d="M0 0 C2.97 0 5.94 0 9 0 C6 2 6 2 3 2 C2.67 3.32 2.34 4.64 2 6 C1.34 5.34 0.68 4.68 0 4 C0 2.68 0 1.36 0 0 Z " fill="#5C8CC1" transform="translate(248,352)"/>
<path d="M0 0 C2.31 0 4.62 0 7 0 C7.33 0.66 7.66 1.32 8 2 C5.29120665 3.35439668 2.99066732 3.06501451 0 3 C0 2.01 0 1.02 0 0 Z " fill="#1263AD" transform="translate(416,310)"/>
<path d="M0 0 C0.33 1.32 0.66 2.64 1 4 C0.34 4 -0.32 4 -1 4 C-1.33 6.31 -1.66 8.62 -2 11 C-2.99 10.67 -3.98 10.34 -5 10 C-3.35 6.7 -1.7 3.4 0 0 Z " fill="#3C719D" transform="translate(339,126)"/>
<path d="M0 0 C1.65 0 3.3 0 5 0 C5 1.32 5 2.64 5 4 C2.03 3.505 2.03 3.505 -1 3 C-0.67 2.01 -0.34 1.02 0 0 Z " fill="#105BA5" transform="translate(402,311)"/>
<path d="M0 0 C1.32 0.66 2.64 1.32 4 2 C4 4.31 4 6.62 4 9 C3.34 9 2.68 9 2 9 C2 7.02 2 5.04 2 3 C1.01 2.67 0.02 2.34 -1 2 C-0.67 1.34 -0.34 0.68 0 0 Z " fill="#3064A3" transform="translate(221,313)"/>
<path d="M0 0 C2.97 0 5.94 0 9 0 C9 0.33 9 0.66 9 1 C7.7934375 1.185625 7.7934375 1.185625 6.5625 1.375 C5.716875 1.58125 4.87125 1.7875 4 2 C3.67 2.66 3.34 3.32 3 4 C1.68 3.67 0.36 3.34 -1 3 C-0.67 2.01 -0.34 1.02 0 0 Z " fill="#0B52A3" transform="translate(104,310)"/>
<path d="M0 0 C1.65 0 3.3 0 5 0 C5.33 0.99 5.66 1.98 6 3 C3.69 3 1.38 3 -1 3 C-0.67 2.01 -0.34 1.02 0 0 Z " fill="#2B64AA" transform="translate(108,311)"/>
<path d="M0 0 C3.3 0 6.6 0 10 0 C7.60543557 2.39456443 6.34192692 2.75546876 3 3 C2.01 2.01 1.02 1.02 0 0 Z " fill="#0F5AA2" transform="translate(386,310)"/>
<path d="M0 0 C0.66 0 1.32 0 2 0 C2.33 1.65 2.66 3.3 3 5 C2.34 5 1.68 5 1 5 C1 6.65 1 8.3 1 10 C0.67 10 0.34 10 0 10 C0 6.7 0 3.4 0 0 Z " fill="#C7E0F3" transform="translate(179,358)"/>
<path d="M0 0 C1.98 0 3.96 0 6 0 C6 0.99 6 1.98 6 3 C4.02 3 2.04 3 0 3 C0 2.01 0 1.02 0 0 Z " fill="#105BAB" transform="translate(241,310)"/>
<path d="M0 0 C2 3 2 3 1.75 5.625 C1.5025 6.40875 1.255 7.1925 1 8 C0.01 8.495 0.01 8.495 -1 9 C-0.67 6.03 -0.34 3.06 0 0 Z " fill="#1875BD" transform="translate(301,156)"/>
<path d="M0 0 C0.99 0 1.98 0 3 0 C3 0.99 3 1.98 3 3 C0 5 0 5 -4 5 C-3.67 4.34 -3.34 3.68 -3 3 C-2.34 3.33 -1.68 3.66 -1 4 C-0.67 2.68 -0.34 1.36 0 0 Z " fill="#0C65A6" transform="translate(338,133)"/>
</svg>
